<?xml version="1.0" standalone="no"?>
<!DOCTYPE svg PUBLIC "-//W3C//DTD SVG 20010904//EN"
 "http://www.w3.org/TR/2001/REC-SVG-20010904/DTD/svg10.dtd">
<svg version="1.0" xmlns="http://www.w3.org/2000/svg"
 width="225.000000pt" height="225.000000pt" viewBox="0 0 225.000000 225.000000"
 preserveAspectRatio="xMidYMid meet">
<metadata>
Created by potrace 1.11, written by Peter Selinger 2001-2013
</metadata>
<g transform="translate(0.000000,225.000000) scale(0.100000,-0.100000)"
fill="#000000" stroke="none">
<path d="M1015 1676 c-13 -19 -26 -26 -50 -26 -63 0 -71 -11 -23 -35 27 -14
43 -29 44 -41 2 -29 35 -95 51 -101 7 -3 13 -12 13 -21 0 -13 -3 -12 -20 3
-10 9 -26 15 -33 12 -11 -4 -13 0 -10 14 3 12 -6 32 -26 54 -33 38 -38 38 -21
2 7 -14 -1 -9 -20 13 -33 38 -41 30 -10 -10 11 -14 20 -40 20 -59 0 -26 8 -41
32 -63 17 -15 29 -30 26 -33 -4 -4 -128 122 -170 174 -10 11 -23 21 -29 21 -8
0 -6 -7 4 -18 10 -10 17 -24 17 -30 0 -7 4 -12 10 -12 5 0 7 -7 5 -15 -3 -8
-7 -22 -10 -31 -4 -13 -10 -12 -36 10 -41 35 -60 33 -26 -2 22 -23 34 -72 17
-72 -8 0 -54 32 -61 43 -4 5 -13 7 -20 5 -9 -3 -5 -11 13 -27 18 -16 25 -30
22 -45 -5 -27 -6 -106 -1 -176 4 -56 15 -86 48 -129 10 -13 16 -28 12 -34 -4
-6 0 -8 9 -5 8 4 21 2 28 -2 11 -7 9 -13 -11 -29 -13 -11 -19 -20 -14 -21 6 0
16 5 22 11 11 11 63 22 63 13 0 -3 -12 -16 -26 -29 -15 -14 -22 -25 -16 -25 6
0 23 12 37 27 18 21 25 24 25 12 0 -9 11 -24 24 -33 23 -15 25 -14 31 5 4 13
12 18 23 15 12 -4 21 3 30 24 15 34 37 41 27 10 -8 -26 21 -74 41 -66 8 3 14
-1 14 -9 0 -29 20 -15 21 15 2 42 3 47 12 56 4 4 7 -7 7 -24 0 -16 3 -38 6
-46 6 -15 8 -15 20 1 10 14 13 15 14 3 0 -8 11 1 24 20 18 27 21 39 14 54 -8
14 -7 17 4 14 7 -2 20 -18 28 -34 9 -18 21 -29 29 -26 8 3 20 -3 27 -12 12
-16 14 -16 38 -1 16 11 23 22 19 33 -3 9 10 1 30 -17 21 -19 37 -30 37 -24 0
7 -10 19 -22 28 -19 13 -21 17 -8 25 10 6 22 4 37 -5 32 -21 42 -18 15 5 -22
18 -22 19 -2 25 11 3 25 3 32 -1 8 -5 9 -2 4 11 -4 12 1 26 15 41 32 34 46
106 42 224 -3 103 -2 105 25 127 37 30 10 29 -36 -2 -20 -14 -40 -25 -44 -25
-20 0 -5 47 25 78 l32 34 -32 -16 c-18 -9 -33 -13 -34 -9 0 5 -4 -2 -9 -14
-10 -25 -30 -31 -31 -10 0 6 -2 19 -4 29 -2 9 8 32 21 52 14 20 22 36 20 36
-3 0 -55 -51 -117 -112 -61 -62 -101 -98 -89 -81 11 18 18 38 15 44 -4 6 -1
10 6 8 27 -3 37 1 42 21 3 13 0 20 -9 20 -20 0 -18 10 11 53 14 20 21 37 15
37 -5 0 -10 -3 -10 -7 -1 -13 -51 -66 -56 -60 -3 3 2 20 11 39 l17 33 -26 -30
c-14 -16 -25 -39 -26 -51 0 -11 -13 -30 -29 -42 -26 -19 -31 -19 -47 -6 -14
11 -15 14 -4 12 24 -4 62 22 56 38 -3 8 1 17 9 21 11 4 14 17 12 49 -3 42 -2
43 32 52 l36 9 -30 7 c-51 13 -61 18 -47 23 16 6 5 23 -14 23 -11 0 -13 -6 -9
-21 4 -13 3 -19 -2 -16 -29 18 -117 -35 -96 -57 3 -3 2 -6 -4 -6 -6 0 -16 6
-22 14 -6 8 -25 19 -41 26 -26 11 -28 15 -19 37 13 35 4 40 -16 9z"/>
<path d="M310 824 c0 -20 4 -33 10 -29 5 3 6 13 3 22 -4 10 -2 14 5 9 6 -3 14
-2 17 4 4 6 1 9 -7 8 -7 -2 -12 3 -10 10 1 6 -2 12 -8 12 -5 0 -10 -16 -10
-36z"/>
<path d="M391 849 c7 -4 19 -5 27 -1 12 4 14 -2 10 -26 -2 -18 -1 -32 4 -32 4
0 8 13 8 29 0 16 6 32 13 34 6 3 -7 5 -31 5 -24 -1 -37 -5 -31 -9z"/>
<path d="M480 848 c0 -10 -4 -18 -8 -18 -4 0 -8 -10 -9 -22 l-2 -23 13 24 13
23 7 -23 c4 -13 10 -19 12 -12 3 6 -2 24 -10 40 -11 20 -15 23 -16 11z"/>
<path d="M522 829 c1 -17 6 -33 10 -35 5 -3 7 11 6 30 -2 20 -6 36 -11 36 -4
0 -6 -14 -5 -31z"/>
<path d="M562 841 c9 -15 9 -23 -1 -35 -9 -10 -10 -16 -2 -16 13 0 26 45 16
59 -3 6 -10 11 -16 11 -5 0 -4 -9 3 -19z"/>
<path d="M597 853 c-11 -11 -8 -53 4 -53 6 0 8 7 5 16 -4 9 -1 23 5 30 11 14
-1 20 -14 7z"/>
<path d="M634 825 c0 -36 10 -39 19 -6 3 11 0 25 -7 30 -9 8 -12 1 -12 -24z"/>
<path d="M684 825 l-1 -34 25 25 c20 19 23 27 13 37 -10 9 -11 8 -6 -5 4 -11
2 -18 -4 -18 -6 0 -11 7 -11 15 0 32 -15 13 -16 -20z"/>
<path d="M740 823 c0 -20 3 -33 7 -29 10 9 11 66 1 66 -4 0 -8 -16 -8 -37z"/>
<path d="M790 845 c0 -8 4 -15 8 -15 5 0 9 7 9 15 0 8 -4 15 -9 15 -4 0 -8 -7
-8 -15z"/>
<path d="M828 825 c-3 -24 -1 -32 6 -25 12 12 16 60 6 60 -4 0 -10 -16 -12
-35z"/>
<path d="M864 824 c1 -34 16 -49 16 -17 0 15 2 15 14 -2 13 -18 14 -17 12 15
-1 28 -6 35 -22 36 -18 1 -21 -4 -20 -32z m36 22 c0 -3 -4 -8 -10 -11 -5 -3
-10 -1 -10 4 0 6 5 11 10 11 6 0 10 -2 10 -4z"/>
<path d="M920 845 c0 -8 4 -15 8 -15 5 0 9 7 9 15 0 8 -4 15 -9 15 -4 0 -8 -7
-8 -15z"/>
<path d="M972 830 c24 -33 35 -38 35 -15 0 8 -4 12 -8 9 -4 -2 -13 5 -19 16
-6 11 -15 20 -21 20 -5 0 0 -13 13 -30z"/>
<path d="M1000 849 c0 -5 5 -7 10 -4 6 3 10 8 10 11 0 2 -4 4 -10 4 -5 0 -10
-5 -10 -11z"/>
<path d="M1045 840 c12 -41 27 -60 20 -25 -4 17 -11 35 -17 40 -7 7 -8 2 -3
-15z"/>
<path d="M1087 853 c-9 -9 -9 -53 1 -53 4 0 7 14 8 30 1 32 1 33 -9 23z"/>
<path d="M1115 850 c3 -5 8 -10 11 -10 2 0 4 5 4 10 0 6 -5 10 -11 10 -5 0 -7
-4 -4 -10z"/>
<path d="M1148 848 c-3 -7 -1 -24 3 -38 6 -22 7 -20 8 13 1 38 -3 47 -11 25z"/>
<path d="M1175 839 c-5 -14 -1 -27 10 -38 16 -15 17 -15 7 4 -7 13 -7 26 -1
37 6 12 6 18 0 18 -5 0 -13 -10 -16 -21z"/>
<path d="M1214 825 c0 -36 10 -39 19 -6 3 11 0 25 -7 30 -8 7 -11 0 -12 -24z"/>
<path d="M1262 831 c30 -38 35 -38 35 2 1 22 -1 27 -6 14 -6 -17 -8 -17 -20
-3 -24 29 -33 17 -9 -13z"/>
<path d="M1321 828 c-15 -42 -12 -50 4 -13 l13 30 7 -27 c4 -16 11 -28 16 -28
9 0 -9 58 -21 65 -4 3 -13 -9 -19 -27z"/>
<path d="M1380 825 c0 -19 2 -35 4 -35 2 0 6 16 8 35 2 19 0 35 -4 35 -4 0 -8
-16 -8 -35z"/>
<path d="M1452 823 c1 -37 1 -37 5 -5 3 18 10 32 18 32 21 0 24 -23 6 -44 -15
-18 -15 -18 7 -7 35 19 22 61 -20 61 -14 0 -18 -7 -16 -37z"/>
<path d="M1520 831 c0 -17 4 -32 9 -35 5 -3 8 10 8 29 -1 42 -17 47 -17 6z"/>
<path d="M1596 828 c1 -44 19 -47 19 -3 0 19 -4 35 -10 35 -5 0 -10 -14 -9
-32z"/>
<path d="M1626 845 c-3 -8 -1 -25 4 -37 7 -20 8 -17 8 15 -1 41 -3 44 -12 22z"/>
<path d="M1655 840 c-7 -23 10 -50 31 -50 20 0 34 32 23 53 -14 23 -46 21 -54
-3z m45 -15 c0 -15 -6 -25 -14 -25 -16 0 -25 19 -18 38 8 22 32 13 32 -13z"/>
<path d="M1728 825 c2 -19 7 -35 11 -35 4 0 5 16 3 35 -2 19 -7 35 -11 35 -4
0 -5 -16 -3 -35z"/>
<path d="M1781 826 c-1 -26 2 -37 9 -30 6 6 6 21 1 39 -9 30 -9 30 -10 -9z"/>
<path d="M1813 830 c12 -31 21 -37 32 -20 3 6 2 10 -4 10 -5 0 -13 9 -16 20
-3 11 -10 20 -15 20 -4 0 -3 -13 3 -30z"/>
<path d="M1846 844 c-5 -14 -4 -15 9 -4 13 11 15 8 15 -20 0 -25 3 -31 16 -26
9 3 18 6 20 6 2 0 4 8 4 17 0 15 -2 14 -16 -3 -14 -18 -15 -17 -11 14 3 25 0
32 -14 32 -9 0 -20 -7 -23 -16z"/>
<path d="M1910 855 c0 -11 32 -67 36 -63 6 7 -19 68 -28 68 -4 0 -8 -2 -8 -5z"/>
<path d="M360 840 c0 -6 7 -13 16 -17 8 -3 13 -12 10 -20 -3 -8 -1 -11 4 -8
16 10 12 29 -10 43 -13 7 -20 8 -20 2z"/>
<path d="M790 811 c0 -5 5 -13 10 -16 6 -3 10 -2 10 4 0 5 -4 13 -10 16 -5 3
-10 2 -10 -4z"/>
<path d="M920 811 c0 -6 5 -13 10 -16 6 -3 10 1 10 9 0 9 -4 16 -10 16 -5 0
-10 -4 -10 -9z"/>
<path d="M1020 805 c0 -8 2 -15 4 -15 2 0 6 7 10 15 3 8 1 15 -4 15 -6 0 -10
-7 -10 -15z"/>
<path d="M1251 804 c0 -11 3 -14 6 -6 3 7 2 16 -1 19 -3 4 -6 -2 -5 -13z"/>
<path d="M345 800 c-3 -6 1 -7 9 -4 18 7 21 14 7 14 -6 0 -13 -4 -16 -10z"/>
<path d="M955 800 c-3 -5 -1 -10 4 -10 6 0 11 5 11 10 0 6 -2 10 -4 10 -3 0
-8 -4 -11 -10z"/>
<path d="M1115 800 c-3 -5 -1 -10 4 -10 6 0 11 5 11 10 0 6 -2 10 -4 10 -3 0
-8 -4 -11 -10z"/>
<path d="M300 740 c0 -11 1648 -11 1655 0 3 5 -354 9 -825 8 -456 0 -830 -4
-830 -8z"/>
<path d="M609 694 c-1 -5 -2 -15 -3 -23 0 -8 -9 -15 -19 -17 -22 -3 -23 -3
-31 -30 -8 -27 14 -51 45 -49 22 2 24 6 22 59 -1 32 -4 60 -7 63 -3 4 -7 2 -7
-3z m-1 -80 c0 -14 -6 -24 -15 -24 -17 0 -27 24 -19 45 8 22 34 7 34 -21z"/>
<path d="M981 689 c-28 -11 -45 -54 -31 -79 27 -50 95 -49 102 1 4 22 1 29
-12 29 -13 0 -16 -6 -12 -25 5 -31 -22 -45 -45 -22 -36 36 -4 109 38 87 22
-12 29 -13 29 -1 0 13 -43 19 -69 10z"/>
<path d="M1579 697 c-1 -4 -2 -11 -3 -15 0 -5 -13 -20 -28 -33 -42 -36 -22
-86 29 -73 15 4 18 14 15 61 -2 48 -9 81 -13 60z m-2 -73 c2 -28 -1 -35 -15
-32 -23 4 -27 32 -7 52 9 9 17 16 18 16 1 0 3 -16 4 -36z"/>
<path d="M1700 700 c-1 -3 -4 -32 -5 -66 -2 -40 1 -61 9 -61 7 0 10 17 8 46
-3 55 -8 88 -12 81z"/>
<path d="M2118 693 c-3 -4 -4 -30 -3 -56 2 -39 0 -47 -14 -45 -20 4 -27 38
-10 49 7 4 11 11 7 14 -4 4 -14 -4 -22 -18 -26 -38 -3 -72 41 -61 16 5 19 14
17 60 -2 54 -8 74 -16 57z"/>
<path d="M36 633 c1 -40 6 -57 16 -59 10 -1 13 7 10 30 -3 17 -1 28 3 24 12
-12 45 11 45 31 0 20 -19 31 -53 31 -20 0 -22 -5 -21 -57z m50 32 c8 -19 -4
-35 -20 -29 -8 3 -12 14 -9 25 6 22 21 25 29 4z"/>
<path d="M797 683 c-4 -3 -7 -11 -7 -17 0 -6 5 -5 12 2 6 6 9 14 7 17 -3 3 -9
2 -12 -2z"/>
<path d="M1444 633 c1 -32 5 -57 9 -55 4 1 7 4 7 7 0 3 0 28 0 55 0 28 -4 50
-9 50 -5 0 -8 -26 -7 -57z"/>
<path d="M1778 681 c9 -5 12 -23 8 -57 -4 -48 -4 -50 21 -50 20 0 22 2 10 11
-7 5 -14 18 -14 28 0 14 6 18 24 14 14 -2 23 1 23 8 0 8 -9 10 -25 8 -21 -5
-24 -2 -19 21 4 22 1 26 -18 26 -16 0 -19 -3 -10 -9z"/>
<path d="M1820 686 c0 -2 9 -6 20 -9 11 -3 20 -1 20 4 0 5 -9 9 -20 9 -11 0
-20 -2 -20 -4z"/>
<path d="M140 652 c-18 -8 -21 -70 -3 -76 8 -4 11 6 9 30 -3 24 0 34 10 34 8
0 14 5 14 10 0 11 -8 12 -30 2z"/>
<path d="M187 639 c-18 -25 -13 -45 15 -60 40 -21 68 43 31 72 -15 12 -16 12
-9 -6 18 -44 3 -82 -19 -51 -11 14 -11 24 -4 38 15 28 4 34 -14 7z"/>
<path d="M277 642 c-21 -23 -21 -36 -2 -56 18 -17 41 -12 49 11 5 13 4 14 -8
4 -19 -16 -36 -6 -36 19 0 22 16 35 25 20 3 -5 11 -10 17 -10 7 0 6 6 -2 15
-16 19 -23 19 -43 -3z"/>
<path d="M343 627 c6 -46 12 -54 39 -52 19 1 23 8 24 34 0 17 -5 36 -11 41 -8
6 -10 -1 -7 -25 3 -27 1 -35 -12 -35 -11 0 -16 9 -16 29 0 17 -5 33 -11 37 -7
4 -9 -5 -6 -29z"/>
<path d="M433 651 c-12 -9 -10 -82 2 -78 6 2 10 17 10 32 1 16 6 30 13 33 7 2
12 7 12 11 0 9 -26 10 -37 2z"/>
<path d="M516 627 c4 -29 1 -37 -12 -37 -14 0 -15 2 -3 17 12 14 12 16 -1 11
-8 -2 -15 -13 -15 -23 0 -13 8 -19 28 -19 16 -1 31 2 33 6 3 4 1 8 -4 8 -6 0
-8 8 -6 18 3 9 -1 26 -9 37 -14 18 -14 16 -11 -18z"/>
<path d="M643 625 c5 -45 16 -56 45 -49 24 7 30 46 12 74 -7 11 -10 5 -10 -22
0 -27 -4 -38 -15 -38 -10 0 -15 10 -15 29 0 17 -5 33 -10 36 -7 4 -9 -6 -7
-30z"/>
<path d="M727 654 c-8 -9 7 -81 17 -81 7 0 10 12 8 34 -3 26 -1 33 14 33 9 0
14 3 10 7 -6 7 -44 12 -49 7z"/>
<path d="M843 653 c-7 -2 -13 -9 -13 -15 0 -7 5 -6 14 1 9 8 16 8 20 2 4 -6
-3 -15 -14 -21 -29 -16 -22 -45 12 -45 24 -1 26 2 23 31 -4 49 -13 59 -42 47z
m27 -48 c0 -8 -7 -15 -16 -15 -14 0 -14 3 -4 15 7 8 14 15 16 15 2 0 4 -7 4
-15z"/>
<path d="M1082 648 c-17 -17 -15 -53 4 -68 12 -11 18 -10 32 4 16 16 16 17 -2
10 -11 -4 -21 -2 -27 7 -12 20 -11 29 4 24 6 -3 19 0 27 5 13 9 13 11 0 20
-19 13 -24 12 -38 -2z m28 -8 c0 -5 -4 -10 -10 -10 -5 0 -10 5 -10 10 0 6 5
10 10 10 6 0 10 -4 10 -10z"/>
<path d="M1165 653 c-17 -3 -20 -10 -17 -43 2 -22 8 -40 13 -40 5 0 8 15 7 33
-2 23 1 32 12 32 11 0 14 -9 13 -31 -2 -19 2 -31 10 -31 9 0 11 12 7 40 -5 42
-11 47 -45 40z"/>
<path d="M1242 648 c-30 -30 1 -94 33 -68 8 7 15 18 14 24 0 7 -2 6 -6 -1 -7
-18 -30 -16 -37 3 -8 22 -8 24 7 19 6 -3 19 0 27 5 13 9 13 11 0 20 -19 13
-24 12 -38 -2z m28 -8 c0 -5 -4 -10 -10 -10 -5 0 -10 5 -10 10 0 6 5 10 10 10
6 0 10 -4 10 -10z"/>
<path d="M1320 654 c-12 -4 -14 -15 -12 -44 2 -22 8 -40 13 -40 5 0 8 15 7 33
-3 29 -1 32 25 30 15 -1 27 3 27 8 0 6 5 7 10 4 17 -10 12 -55 -6 -55 -14 0
-14 3 -4 15 9 11 9 15 1 15 -13 0 -27 -28 -18 -36 3 -3 17 -7 31 -8 27 -3 44
8 27 18 -5 3 -7 14 -4 24 6 26 -22 48 -41 33 -10 -8 -16 -9 -21 -1 -6 10 -9
11 -35 4z"/>
<path d="M1638 653 c6 -2 12 -11 12 -19 0 -8 5 -14 10 -14 16 0 11 27 -6 34
-9 3 -19 6 -22 5 -4 0 -1 -3 6 -6z"/>
<path d="M1883 644 c-4 -11 2 -23 16 -33 12 -9 19 -20 15 -24 -4 -4 -13 -2
-21 4 -8 7 -13 8 -13 1 0 -12 29 -24 41 -16 16 9 10 33 -11 44 -11 6 -17 16
-14 25 4 8 3 15 0 15 -4 0 -9 -7 -13 -16z"/>
<path d="M1910 651 c0 -5 5 -13 10 -16 6 -3 10 -2 10 4 0 5 -4 13 -10 16 -5 3
-10 2 -10 -4z"/>
<path d="M1948 620 c4 -41 16 -58 27 -40 3 5 2 10 -4 10 -9 0 -6 44 5 62 3 4
-3 8 -13 8 -16 0 -18 -6 -15 -40z"/>
<path d="M2000 645 c-9 -10 -9 -15 -1 -15 6 0 11 5 11 11 0 5 5 7 10 4 6 -3
10 -19 10 -35 0 -16 5 -32 10 -35 14 -9 13 58 -2 73 -16 16 -23 15 -38 -3z"/>
<path d="M2191 644 c23 -27 14 -75 -10 -59 -6 3 -11 20 -11 38 0 22 -3 28 -11
20 -15 -15 -7 -54 14 -67 15 -9 22 -7 38 13 17 21 18 27 6 44 -8 12 -20 23
-28 25 -11 4 -10 1 2 -14z"/>
<path d="M480 640 c0 -5 5 -10 10 -10 6 0 10 5 10 10 0 6 -4 10 -10 10 -5 0
-10 -4 -10 -10z"/>
<path d="M788 612 c-2 -25 1 -39 9 -39 7 0 11 15 11 39 0 21 -4 38 -8 38 -4 0
-10 -17 -12 -38z"/>
<path d="M1610 616 c0 -43 49 -59 64 -20 4 11 2 12 -15 1 -16 -10 -21 -9 -29
3 -6 9 -6 16 0 18 12 4 3 22 -11 22 -5 0 -9 -11 -9 -24z"/>
<path d="M1997 613 c-12 -11 -8 -31 7 -36 10 -4 13 2 12 19 -1 24 -7 30 -19
17z"/>
<path d="M1850 595 c-7 -9 -10 -18 -7 -21 3 -3 10 4 17 15 13 25 8 27 -10 6z"/>
</g>
</svg>
